<svg xmlns="http://www.w3.org/2000/svg" width="14.969" height="10.91" viewBox="0 0 14.969 10.91">
  <defs>
    <style>
      .cls-1 {
        fill: #000000;
        fill-rule: evenodd;
      }
    </style>
  </defs>
  <path id="Arrow" class="cls-1" d="M802.065,3490.22a0.512,0.512,0,0,0-.753,0,0.561,0.561,0,0,0,0,.77l3.82,3.96h-12.6a0.531,0.531,0,0,0-.527.54,0.542,0.542,0,0,0,.527.56h12.6l-3.82,3.95a0.574,0.574,0,0,0,0,.78,0.512,0.512,0,0,0,.753,0l4.724-4.9a0.547,0.547,0,0,0,0-.77Z" transform="translate(-792 -3490.06)"/>
</svg>
