<svg xmlns="http://www.w3.org/2000/svg" width="186" height="78.1" viewBox="0 0 186 78.1">
  <defs>
    <style>
      .cls-1 {
        fill: #000000;
        fill-rule: evenodd;
      }
    </style>
  </defs>
  <path id="new_vector_shape_done" class="cls-1" d="M874,7210H988c-0.009,10,.007,8.77,0,10,0,0.04-3.718,0-7.5,0H874c0,26.95-.078,33.75.235,33.92-6-3.23-24.982-11.33-72.242-38.16,0,0,19.265-10.55,51.007-27.76,15.267-8.28,21.068-13.48,21.022-11.89-0.07,2.38-.022,4.1-0.022,9.89v24Zm-9,30.28c0-13.94,0-31.62,0-49.28-24.41,13.1-46.021,24.55-46.021,24.55C818.979,7215.53,848.422,7231.27,865,7240.28ZM988,7210v10c-0.031.06,0-1,0-1" transform="translate(-802 -7175.81)"/>
</svg>
